<svg width="151" height="76" viewBox="0 0 151 76" fill="none" xmlns="http://www.w3.org/2000/svg">
<path d="M81.2853 1.33235C80.7974 1.40223 80.3095 3.14942 79.3336 4.12784C78.6366 4.82672 77.8002 4.82672 77.3123 5.59548C77.1032 5.87503 77.2426 6.43413 77.0335 6.92334C76.6152 7.97165 75.2909 8.11143 75.2909 9.15974C75.2909 10.3478 76.4758 10.6274 77.4517 11.466C78.2184 12.1649 78.3578 12.6541 79.1942 12.9337C79.961 13.2132 81.1459 12.3746 82.1915 12.6541C83.0976 12.9337 83.934 13.1433 84.1431 13.982C84.3522 14.8206 84.1431 16.0786 83.0976 15.9388C82.6794 15.9388 81.1459 15.3797 79.3336 15.5195C76.9638 15.799 74.3848 16.4979 74.1757 19.0838C74.1059 20.5514 75.8485 22.1588 77.4517 21.8792C78.6366 21.6696 78.0093 20.202 78.7063 19.573C79.6125 18.7343 84.3522 22.5781 88.8132 22.5781C90.6952 22.5781 92.0892 22.0889 93.4833 20.6213C93.553 20.5514 93.7621 20.202 93.9712 20.202C94.1803 20.202 94.4591 20.4116 94.5288 20.4815C98.1534 23.3469 100.872 29.0777 113.976 29.1475C115.858 29.1475 117.949 29.9862 119.691 31.5936C121.225 33.0612 122.131 35.2277 122.967 37.4641C124.362 40.8187 126.662 44.1035 130.286 47.6677C130.495 47.8774 133.423 50.1837 133.702 50.2535C133.702 50.2535 133.98 50.8126 133.911 51.0922C133.841 53.3286 133.493 59.6185 138.302 59.898C139.487 59.9679 139.208 59.1292 139.208 58.5701C139.208 57.5218 138.999 56.3338 139.626 55.2854C140.393 53.7479 137.954 53.049 137.954 49.6944C138.023 47.1785 135.932 47.5978 134.817 45.7109C134.259 44.6625 133.632 43.9637 133.632 42.6358C133.841 35.0181 131.959 29.9862 131.123 28.7981C130.426 27.8197 129.729 27.5401 130.426 27.0509C134.399 24.4651 135.305 22.019 135.305 22.019C137.466 17.1269 139.278 12.5842 141.927 10.6274C142.415 10.208 143.809 9.15974 144.645 8.8103C147.085 7.62221 148.339 6.99323 149.036 6.29435C150.082 5.24604 151.058 2.93976 150.012 1.54201C148.618 -0.205178 146.388 1.12268 145.342 1.82156C138.023 6.15458 136.978 13.7024 134.468 18.0354C132.447 21.5298 129.241 24.1156 126.313 24.3253C124.083 24.535 121.713 24.0458 119.413 22.9974C113.697 20.4815 110.56 17.3366 109.794 16.7076C108.26 15.5195 96.3411 3.84829 86.6524 3.35908C86.6524 3.35908 85.4675 0.91302 85.1887 0.91302C84.4916 0.843133 83.7249 2.38066 83.237 2.59032C82.6097 3.07953 81.7732 1.19257 81.2853 1.33235ZM38.7667 70.8004C37.8606 70.8004 37.1636 70.0317 37.0939 69.1231V39.0716H27.0567V72.1982C27.0567 73.8755 28.4507 75.2034 29.9842 75.2034H47.3401C49.013 75.2034 50.2677 73.8755 50.2677 72.1982V39.1414H40.4396V69.193C40.3699 70.1016 39.6729 70.8004 38.7667 70.8004ZM72.0846 39.1414H56.9591C55.2165 39.1414 53.7528 40.6091 53.7528 42.3563V75.2034H63.6506V45.1518C63.6506 44.1733 64.4173 43.4745 65.3234 43.4745C66.2993 43.4745 66.9963 44.1733 66.9963 45.1518V75.2732H76.8941V45.012C76.8941 44.1733 77.6608 43.3347 78.5669 43.3347C79.4731 43.3347 80.2398 44.1035 80.2398 45.012V75.1335H90.1376V42.2864C90.1376 40.4693 88.6738 39.0716 86.9312 39.0716H72.0846V39.1414ZM20.4349 66.118H10.3978V75.2034H0.5V39.1414H20.5744C22.3169 39.1414 23.7807 40.6091 23.7807 42.4262V62.9032C23.7807 64.7202 22.3169 66.118 20.4349 66.118ZM13.8132 45.1518C13.8132 44.1733 13.0465 43.4046 12.1403 43.4046H10.4675V61.6452H12.1403C13.0465 61.6452 13.8132 60.9463 13.8132 59.898V45.1518ZM106.099 75.3431V66.3277H102.684V75.3431H92.7166V42.6358C92.7166 40.8187 94.1803 39.4909 95.9229 39.4909H112.721C114.464 39.4909 115.928 40.9585 115.928 42.6358V75.3431H106.099ZM106.099 61.9247V45.4313C106.099 44.5927 105.333 43.8239 104.427 43.8239C103.52 43.8239 102.754 44.5927 102.754 45.4313V61.9946L106.099 61.9247Z" fill="black"/>
<path d="M124.989 74.9229C122.27 74.9229 120.109 72.7564 120.109 70.0308C120.109 67.3052 122.27 65.1387 124.989 65.1387C127.707 65.1387 129.868 67.3052 129.868 70.0308C129.868 72.7564 127.707 74.9229 124.989 74.9229ZM124.989 65.9074C122.688 65.9074 120.876 67.7944 120.876 70.0308C120.876 72.2672 122.758 74.1542 124.989 74.1542C127.219 74.1542 129.101 72.2672 129.101 70.0308C129.101 67.7944 127.289 65.9074 124.989 65.9074Z" fill="black"/>
<path d="M123.525 68.0059H125.129C125.477 68.0059 125.756 68.0757 125.965 68.2854C126.244 68.4951 126.383 68.7746 126.383 69.1939C126.383 69.753 126.104 70.1724 125.616 70.382L126.592 72.269H125.826L124.989 70.4519H124.222V72.269H123.595V68.0059H123.525ZM124.153 69.8928H125.129C125.338 69.8928 125.547 69.8229 125.686 69.6832C125.826 69.5434 125.895 69.4036 125.895 69.1939C125.895 68.9843 125.826 68.7746 125.686 68.7047C125.547 68.6348 125.407 68.565 125.198 68.565H124.222V69.8928H124.153Z" fill="black"/>
</svg>
