<svg width="56" height="29" viewBox="0 0 56 29" fill="none" xmlns="http://www.w3.org/2000/svg">
<path d="M30.1438 0.252918C29.9617 0.27992 29.7797 0.954969 29.4155 1.333C29.1555 1.60302 28.8434 1.60302 28.6613 1.90004C28.5833 2.00805 28.6353 2.22406 28.5573 2.41307C28.4012 2.8181 27.9071 2.87211 27.9071 3.27714C27.9071 3.73617 28.3492 3.84418 28.7133 4.1682C28.9994 4.43822 29.0514 4.62724 29.3635 4.73524C29.6496 4.84325 30.0918 4.51923 30.4819 4.62724C30.82 4.73524 31.1321 4.81625 31.2101 5.14027C31.2881 5.4643 31.2101 5.95033 30.82 5.89633C30.6639 5.89633 30.0918 5.68031 29.4155 5.73432C28.5313 5.84232 27.5689 6.11234 27.4909 7.11142C27.4649 7.67846 28.1151 8.2995 28.7133 8.19149C29.1555 8.11049 28.9214 7.54345 29.1815 7.30043C29.5196 6.97641 31.2881 8.46151 32.9527 8.46151C33.6549 8.46151 34.1751 8.2725 34.6953 7.70546C34.7213 7.67846 34.7993 7.54345 34.8773 7.54345C34.9553 7.54345 35.0594 7.62445 35.0854 7.65146C36.4378 8.75854 37.4521 10.9727 42.3417 10.9997C43.044 10.9997 43.8242 11.3237 44.4744 11.9448C45.0466 12.5118 45.3847 13.3489 45.6968 14.2129C46.217 15.509 47.0753 16.7781 48.4277 18.1552C48.5057 18.2362 49.5981 19.1273 49.7021 19.1543C49.7021 19.1543 49.8062 19.3703 49.7801 19.4783C49.7541 20.3424 49.6241 22.7726 51.4187 22.8806C51.8608 22.9076 51.7568 22.5835 51.7568 22.3675C51.7568 21.9625 51.6788 21.5035 51.9128 21.0984C52.1989 20.5044 51.2886 20.2344 51.2886 18.9383C51.3146 17.9662 50.5344 18.1282 50.1183 17.3992C49.9102 16.9941 49.6761 16.7241 49.6761 16.2111C49.7541 13.2679 49.0519 11.3237 48.7398 10.8647C48.4797 10.4867 48.2196 10.3787 48.4797 10.1896C49.9622 9.19057 50.3003 8.2455 50.3003 8.2455C51.1066 6.35536 51.7828 4.60023 52.7711 3.84418C52.9532 3.68217 53.4733 3.27714 53.7854 3.14213C54.6957 2.68309 55.1639 2.44008 55.424 2.17006C55.8141 1.76503 56.1782 0.873963 55.7881 0.333924C55.2679 -0.341125 54.4357 0.171912 54.0455 0.441931C51.3146 2.11605 50.9245 5.03227 49.9882 6.70639C49.234 8.05649 48.0376 9.05556 46.9452 9.13656C46.113 9.21757 45.2287 9.02856 44.3704 8.62353C42.2377 7.65146 41.0673 6.43637 40.7812 6.19335C40.209 5.73432 35.7616 1.22499 32.1464 1.03597C32.1464 1.03597 31.7043 0.090906 31.6003 0.090906C31.3402 0.063904 31.0541 0.657947 30.872 0.738953C30.6379 0.927967 30.3258 0.198914 30.1438 0.252918ZM14.2786 27.0929C13.9405 27.0929 13.6804 26.7958 13.6544 26.4448V14.834H9.90921V27.6329C9.90921 28.281 10.4294 28.794 11.0016 28.794H17.4777C18.1019 28.794 18.57 28.281 18.57 27.6329V14.861H14.9028V26.4718C14.8768 26.8228 14.6167 27.0929 14.2786 27.0929ZM26.7107 14.861H21.0668C20.4166 14.861 19.8704 15.428 19.8704 16.1031V28.794H23.5636V17.1831C23.5636 16.8051 23.8497 16.5351 24.1878 16.5351C24.552 16.5351 24.812 16.8051 24.812 17.1831V28.821H28.5052V17.1291C28.5052 16.8051 28.7913 16.4811 29.1294 16.4811C29.4676 16.4811 29.7537 16.7781 29.7537 17.1291V28.767H33.4468V16.0761C33.4468 15.374 32.9007 14.834 32.2505 14.834H26.7107V14.861ZM7.43841 25.2837H3.6932V28.794H0V14.861H7.49043C8.14064 14.861 8.68682 15.428 8.68682 16.1301V24.0416C8.68682 24.7437 8.14064 25.2837 7.43841 25.2837ZM4.96761 17.1831C4.96761 16.8051 4.68152 16.5081 4.34341 16.5081H3.71921V23.5556H4.34341C4.68152 23.5556 4.96761 23.2856 4.96761 22.8806V17.1831ZM39.4028 28.848V25.3647H38.1284V28.848H34.4092V16.2111C34.4092 15.509 34.9553 14.996 35.6055 14.996H41.8736C42.5238 14.996 43.07 15.563 43.07 16.2111V28.848H39.4028ZM39.4028 23.6636V17.2912C39.4028 16.9671 39.1167 16.6701 38.7786 16.6701C38.4405 16.6701 38.1544 16.9671 38.1544 17.2912V23.6906L39.4028 23.6636Z" fill="black"/>
<path d="M46.4514 28.6865C45.4371 28.6865 44.6309 27.8495 44.6309 26.7964C44.6309 25.7433 45.4371 24.9062 46.4514 24.9062C47.4658 24.9062 48.272 25.7433 48.272 26.7964C48.272 27.8495 47.4658 28.6865 46.4514 28.6865ZM46.4514 25.2033C45.5932 25.2033 44.9169 25.9323 44.9169 26.7964C44.9169 27.6605 45.6192 28.3895 46.4514 28.3895C47.2837 28.3895 47.9859 27.6605 47.9859 26.7964C47.9859 25.9323 47.3097 25.2033 46.4514 25.2033Z" fill="black"/>
<path d="M45.9053 26.0137H46.5035C46.6335 26.0137 46.7375 26.0407 46.8156 26.1217C46.9196 26.2027 46.9716 26.3107 46.9716 26.4727C46.9716 26.6887 46.8676 26.8507 46.6855 26.9317L47.0496 27.6608H46.7636L46.4515 26.9587H46.1654V27.6608H45.9313V26.0137H45.9053ZM46.1393 26.7427H46.5035C46.5815 26.7427 46.6595 26.7157 46.7115 26.6617C46.7636 26.6077 46.7896 26.5537 46.7896 26.4727C46.7896 26.3917 46.7636 26.3107 46.7115 26.2837C46.6595 26.2567 46.6075 26.2297 46.5295 26.2297H46.1654V26.7427H46.1393Z" fill="black"/>
</svg>
