<svg width="402" height="264" viewBox="0 0 402 264" fill="none" xmlns="http://www.w3.org/2000/svg">
<rect width="402" height="264" rx="6" fill="#10439F"/>
<path d="M207.285 95.6546C206.797 95.7245 206.309 97.4717 205.334 98.4501C204.637 99.149 203.8 99.149 203.312 99.9177C203.103 100.197 203.243 100.756 203.033 101.246C202.615 102.294 201.291 102.434 201.291 103.482C201.291 104.67 202.476 104.95 203.452 105.788C204.218 106.487 204.358 106.976 205.194 107.256C205.961 107.535 207.146 106.697 208.191 106.976C209.098 107.256 209.934 107.466 210.143 108.304C210.352 109.143 210.143 110.401 209.098 110.261C208.679 110.261 207.146 109.702 205.334 109.842C202.964 110.121 200.385 110.82 200.176 113.406C200.106 114.874 201.849 116.481 203.452 116.202C204.637 115.992 204.009 114.524 204.706 113.895C205.612 113.057 210.352 116.9 214.813 116.9C216.695 116.9 218.089 116.411 219.483 114.944C219.553 114.874 219.762 114.524 219.971 114.524C220.18 114.524 220.459 114.734 220.529 114.804C224.153 117.669 226.872 123.4 239.976 123.47C241.858 123.47 243.949 124.308 245.691 125.916C247.225 127.384 248.131 129.55 248.967 131.786C250.362 135.141 252.662 138.426 256.286 141.99C256.495 142.2 259.423 144.506 259.702 144.576C259.702 144.576 259.98 145.135 259.911 145.414C259.841 147.651 259.493 153.941 264.302 154.22C265.487 154.29 265.208 153.452 265.208 152.892C265.208 151.844 264.999 150.656 265.626 149.608C266.393 148.07 263.954 147.371 263.954 144.017C264.023 141.501 261.932 141.92 260.817 140.033C260.259 138.985 259.632 138.286 259.632 136.958C259.841 129.34 257.959 124.308 257.123 123.12C256.426 122.142 255.729 121.862 256.426 121.373C260.399 118.787 261.305 116.341 261.305 116.341C263.466 111.449 265.278 106.906 267.927 104.95C268.415 104.53 269.809 103.482 270.645 103.133C273.085 101.944 274.339 101.315 275.036 100.617C276.082 99.5683 277.058 97.262 276.012 95.8643C274.618 94.1171 272.388 95.4449 271.342 96.1438C264.023 100.477 262.978 108.025 260.468 112.358C258.447 115.852 255.241 118.438 252.313 118.648C250.083 118.857 247.713 118.368 245.413 117.32C239.697 114.804 236.56 111.659 235.794 111.03C234.26 109.842 222.341 98.1706 212.652 97.6813C212.652 97.6813 211.467 95.2353 211.189 95.2353C210.492 95.1654 209.725 96.7029 209.237 96.9126C208.61 97.4018 207.773 95.5148 207.285 95.6546ZM164.767 165.123C163.861 165.123 163.164 164.354 163.094 163.445V133.394H153.057V166.52C153.057 168.198 154.451 169.526 155.984 169.526H173.34C175.013 169.526 176.268 168.198 176.268 166.52V133.464H166.44V163.515C166.37 164.424 165.673 165.123 164.767 165.123ZM198.085 133.464H182.959C181.217 133.464 179.753 134.931 179.753 136.679V169.526H189.651V139.474C189.651 138.496 190.417 137.797 191.323 137.797C192.299 137.797 192.996 138.496 192.996 139.474V169.596H202.894V139.334C202.894 138.496 203.661 137.657 204.567 137.657C205.473 137.657 206.24 138.426 206.24 139.334V169.456H216.138V136.609C216.138 134.792 214.674 133.394 212.931 133.394H198.085V133.464ZM146.435 160.44H136.398V169.526H126.5V133.464H146.574C148.317 133.464 149.781 134.931 149.781 136.748V157.225C149.781 159.043 148.317 160.44 146.435 160.44ZM139.813 139.474C139.813 138.496 139.046 137.727 138.14 137.727H136.467V155.967H138.14C139.046 155.967 139.813 155.269 139.813 154.22V139.474ZM232.099 169.665V160.65H228.684V169.665H218.717V136.958C218.717 135.141 220.18 133.813 221.923 133.813H238.721C240.464 133.813 241.928 135.281 241.928 136.958V169.665H232.099ZM232.099 156.247V139.754C232.099 138.915 231.333 138.146 230.427 138.146C229.52 138.146 228.754 138.915 228.754 139.754V156.317L232.099 156.247Z" fill="black"/>
<path d="M250.989 169.245C248.27 169.245 246.109 167.079 246.109 164.353C246.109 161.627 248.27 159.461 250.989 159.461C253.707 159.461 255.868 161.627 255.868 164.353C255.868 167.079 253.707 169.245 250.989 169.245ZM250.989 160.23C248.688 160.23 246.876 162.117 246.876 164.353C246.876 166.589 248.758 168.476 250.989 168.476C253.219 168.476 255.101 166.589 255.101 164.353C255.101 162.117 253.289 160.23 250.989 160.23Z" fill="black"/>
<path d="M249.525 162.328H251.129C251.477 162.328 251.756 162.398 251.965 162.608C252.244 162.817 252.383 163.097 252.383 163.516C252.383 164.075 252.104 164.495 251.616 164.704L252.592 166.591H251.826L250.989 164.774H250.222V166.591H249.595V162.328H249.525ZM250.153 164.215H251.129C251.338 164.215 251.547 164.145 251.686 164.005C251.826 163.866 251.895 163.726 251.895 163.516C251.895 163.307 251.826 163.097 251.686 163.027C251.547 162.957 251.407 162.887 251.198 162.887H250.222V164.215H250.153Z" fill="black"/>
</svg>
