<svg width="24" height="24" viewBox="0 0 24 24" fill="none" xmlns="http://www.w3.org/2000/svg">
<path d="M19.9697 10H3.96973V18C3.96973 21 4.96973 22 7.96973 22H15.9697C18.9697 22 19.9697 21 19.9697 18V10Z" stroke="white" stroke-width="1.5" stroke-miterlimit="10" stroke-linecap="round" stroke-linejoin="round"/>
<path d="M21.5 7V8C21.5 9.1 20.97 10 19.5 10H4.5C2.97 10 2.5 9.1 2.5 8V7C2.5 5.9 2.97 5 4.5 5H19.5C20.97 5 21.5 5.9 21.5 7Z" stroke="white" stroke-width="1.5" stroke-miterlimit="10" stroke-linecap="round" stroke-linejoin="round"/>
<path d="M11.6398 4.99945H6.11978C5.77978 4.62945 5.78978 4.05945 6.14978 3.69945L7.56978 2.27945C7.93978 1.90945 8.54978 1.90945 8.91978 2.27945L11.6398 4.99945Z" stroke="white" stroke-width="1.5" stroke-miterlimit="10" stroke-linecap="round" stroke-linejoin="round"/>
<path d="M17.8696 4.99945H12.3496L15.0696 2.27945C15.4396 1.90945 16.0496 1.90945 16.4196 2.27945L17.8396 3.69945C18.1996 4.05945 18.2096 4.62945 17.8696 4.99945Z" stroke="white" stroke-width="1.5" stroke-miterlimit="10" stroke-linecap="round" stroke-linejoin="round"/>
<path d="M8.94043 10V15.14C8.94043 15.94 9.82043 16.41 10.4904 15.98L11.4304 15.36C11.7704 15.14 12.2004 15.14 12.5304 15.36L13.4204 15.96C14.0804 16.4 14.9704 15.93 14.9704 15.13V10H8.94043Z" stroke="white" stroke-width="1.5" stroke-miterlimit="10" stroke-linecap="round" stroke-linejoin="round"/>
</svg>
