<svg width="16" height="16" viewBox="0 0 16 16" fill="none" xmlns="http://www.w3.org/2000/svg">
<path d="M12.667 7.33268H8.66699V3.33268C8.66699 3.15587 8.59675 2.9863 8.47173 2.86128C8.34671 2.73625 8.17714 2.66602 8.00033 2.66602C7.82351 2.66602 7.65395 2.73625 7.52892 2.86128C7.4039 2.9863 7.33366 3.15587 7.33366 3.33268V7.33268H3.33366C3.15685 7.33268 2.98728 7.40292 2.86225 7.52794C2.73723 7.65297 2.66699 7.82254 2.66699 7.99935C2.66699 8.17616 2.73723 8.34573 2.86225 8.47075C2.98728 8.59578 3.15685 8.66602 3.33366 8.66602H7.33366V12.666C7.33366 12.8428 7.4039 13.0124 7.52892 13.1374C7.65395 13.2624 7.82351 13.3327 8.00033 13.3327C8.17714 13.3327 8.34671 13.2624 8.47173 13.1374C8.59675 13.0124 8.66699 12.8428 8.66699 12.666V8.66602H12.667C12.8438 8.66602 13.0134 8.59578 13.1384 8.47075C13.2634 8.34573 13.3337 8.17616 13.3337 7.99935C13.3337 7.82254 13.2634 7.65297 13.1384 7.52794C13.0134 7.40292 12.8438 7.33268 12.667 7.33268Z" fill="black"/>
</svg>
