<svg width="64" height="64" viewBox="0 0 64 64" fill="none" xmlns="http://www.w3.org/2000/svg">
<path fill-rule="evenodd" clip-rule="evenodd" d="M14.8774 19.3739C12.1406 20.7377 12.5154 24.6338 15.4731 25.5661C16.1503 25.7797 16.3738 25.7903 17.0397 25.6413C19.6887 25.0485 20.627 21.9125 18.7244 20.01C17.6604 18.9459 16.2155 18.707 14.8774 19.3739ZM33.8209 19.2857C28.0806 20.4982 23.6324 25.5273 23.2251 31.2656L23.1348 32.5369L26.5005 32.4955L29.866 32.4539L29.9674 31.5353C30.2033 29.3959 31.6781 27.4052 33.7742 26.3971C34.7311 25.9367 35.0471 25.8588 36.2015 25.7985C37.2781 25.7421 37.715 25.7857 38.5151 26.0295C41.1431 26.8298 42.9625 28.9952 43.2948 31.7186L43.3845 32.4539H46.6923H50L49.9701 31.3034C49.9128 29.0976 48.8938 26.4143 47.3202 24.326C44.2155 20.2057 38.8862 18.2159 33.8209 19.2857ZM13.038 32.5287C12.8782 32.7872 13.2497 35.2251 13.6351 36.4478C14.5796 39.4445 16.4533 41.9322 19.0725 43.6671C20.3661 44.524 21.4684 45.0217 23.1332 45.5005C24.7354 45.9611 28.1716 45.9577 29.866 45.4936C32.2998 44.8271 34.4695 43.5305 36.1944 41.7117C37.8217 39.996 38.758 38.3883 39.4087 36.1931C39.7174 35.1513 40.0545 32.7224 39.9203 32.5054C39.8785 32.4375 38.3683 32.382 36.5646 32.382H33.285L33.1116 33.4576C32.5763 36.7756 29.8259 39.1413 26.5038 39.1413C23.1168 39.1413 20.3524 36.7573 19.8202 33.3772L19.6634 32.382H16.3961C14.3301 32.382 13.0953 32.436 13.038 32.5287Z" fill="black"/>
</svg>
