<svg width="51" height="50" viewBox="0 0 51 50" fill="none" xmlns="http://www.w3.org/2000/svg">
<path fill-rule="evenodd" clip-rule="evenodd" d="M12.275 15.17C10.1445 16.2317 10.4362 19.2648 12.7388 19.9906C13.266 20.1569 13.44 20.1652 13.9584 20.0492C16.0207 19.5877 16.7511 17.1463 15.27 15.6652C14.4416 14.8368 13.3167 14.6508 12.275 15.17ZM27.0226 15.1013C22.5537 16.0453 19.0908 19.9604 18.7737 24.4277L18.7034 25.4174L21.3236 25.3852L23.9437 25.3528L24.0226 24.6376C24.2062 22.9721 25.3544 21.4224 26.9862 20.6375C27.7312 20.2791 27.9771 20.2185 28.8759 20.1716C29.714 20.1277 30.0541 20.1616 30.6771 20.3514C32.7229 20.9744 34.1393 22.6602 34.398 24.7804L34.4679 25.3528H37.043H39.618L39.5947 24.4571C39.5502 22.7399 38.7568 20.651 37.5318 19.0252C35.1148 15.8176 30.9659 14.2685 27.0226 15.1013ZM10.8431 25.411C10.7187 25.6122 11.0079 27.5102 11.3079 28.462C12.0432 30.7949 13.5019 32.7316 15.5409 34.0823C16.548 34.7494 17.4062 35.1369 18.7022 35.5096C19.9495 35.8682 22.6246 35.8655 23.9437 35.5042C25.8384 34.9854 27.5275 33.9759 28.8704 32.56C30.1372 31.2243 30.8662 29.9727 31.3727 28.2638C31.613 27.4527 31.8755 25.5618 31.771 25.3929C31.7384 25.3401 30.5627 25.2968 29.1585 25.2968H26.6054L26.4704 26.1342C26.0537 28.7172 23.9125 30.5589 21.3262 30.5589C18.6894 30.5589 16.5373 28.703 16.123 26.0716L16.0009 25.2968H13.4573C11.8489 25.2968 10.8876 25.3388 10.8431 25.411Z" fill="white"/>
</svg>
