<svg width="670" height="670" viewBox="0 0 670 670" fill="none" xmlns="http://www.w3.org/2000/svg">
<path fill-rule="evenodd" clip-rule="evenodd" d="M194.559 31.68C190.101 34.3376 190.106 34.5586 194.834 43.9828C197.482 49.2614 204.038 63.2335 209.401 75.0317C250.459 165.359 305.257 247.695 346.653 281.26C366.104 297.031 397.428 308.357 408.541 303.634C410.349 302.866 408.783 302.236 404.766 302.116C366.25 300.967 321.084 253.704 273.679 164.939C260.106 139.523 223.306 58.1868 216.183 37.856L211.51 24.5152L205.303 26.7438C201.89 27.9706 197.054 30.191 194.559 31.68ZM241.531 45.4748C297.051 168.801 360.573 257.723 409.923 281.199C423.238 287.533 440.622 290.905 446.947 288.38C448.61 287.716 445.027 286.764 438.982 286.264C389.724 282.193 325.164 194.165 268.955 54.4247C249.76 6.70348 251.917 9.39872 237.509 15.1469L229.346 18.406L241.531 45.4748ZM159.722 49.694C157.49 51.0859 155.282 53.058 154.817 54.077C153.792 56.3232 186.163 124.116 202.047 152.987C215.304 177.085 229.929 201.795 236.992 212.026C239.707 215.961 243.073 221.004 244.468 223.235C250.605 233.035 269.94 258.084 280.357 269.732C308.919 301.666 332.242 316.744 357.004 319.285C370.947 320.715 373.802 318.817 360.537 316.935C336.796 313.567 312.79 295.553 285.686 260.764C254.459 220.689 227.379 170.78 191.756 87.6522L172.649 43.071L168.215 45.1172C165.777 46.2425 161.954 48.302 159.722 49.694ZM274.876 18.1621C281.219 34.0178 300.035 72.6075 314.729 99.8895C363.13 189.759 408.424 246.147 447.633 265.351C460.679 271.74 479.581 275.41 485.9 272.784C487.387 272.166 484.868 271.448 480.303 271.186C464.568 270.289 444.968 259.558 425.645 241.259C388.705 206.282 343.684 129.217 307.722 39.4054L293.225 3.19899L286.015 4.18555C268.557 6.57525 269.68 5.16788 274.876 18.1621ZM126.006 73.4261L118.723 79.5699L125.397 93.2452C148.057 139.668 155.235 153.726 168.445 177.553C209.056 250.799 249.754 301.368 286.099 323.747C299.027 331.708 317.66 336.76 327.606 335.004C332.32 334.172 331.909 333.908 324.555 333.061C273.622 327.187 216.557 251.796 156.392 110.894C143.061 79.6705 136.398 65.7147 135.133 66.3538C134.12 66.8636 130.012 70.0468 126.006 73.4261ZM320.4 18.0445C393.07 171.849 460.003 254.985 513.537 257.938C524.985 258.568 529.19 256.541 518.247 255.667C492.64 253.619 458.528 225.919 428.853 183.075C401.569 143.683 368.788 80.5678 345.897 23.3534L336.726 0.431971L325.458 0.593447C319.261 0.681338 313.82 0.902949 313.367 1.08378C312.913 1.26531 316.079 8.89784 320.4 18.0445ZM95.5178 101.251C90.6233 106.431 88.5585 110.126 89.3946 112.205C92.4517 119.806 127.775 187.762 137.222 204.211C188.471 293.465 237.419 343.944 278.341 349.749C284.346 350.6 290.834 350.676 292.761 349.917C294.975 349.043 292.918 348.267 287.169 347.808C251.014 344.918 208.279 301.059 165.068 222.494C146.837 189.349 132.173 158.438 118.858 125.087C112.046 108.024 105.669 93.9197 104.688 93.7477C103.706 93.5757 99.5803 96.9525 95.5178 101.251ZM362.835 9.96532C364.418 13.9298 372.317 30.1655 380.389 46.0423C428.967 141.601 476.059 204.646 518.264 230.624C530.906 238.405 550.601 243.832 560.101 242.152C564.599 241.358 563.822 240.961 555.979 240.045C508.74 234.532 452.926 163.057 396.134 35.3461L382.118 3.82978L371.971 2.92168C366.389 2.42323 361.404 2.18114 360.89 2.38641C360.377 2.59098 361.253 6.00256 362.835 9.96532ZM65.9261 136.009C58.3272 145.476 58.1193 144.66 77.3901 181.046C120.161 261.804 158.274 314.853 194.383 343.883C212.662 358.577 243.58 369.572 254.436 365.238C256.021 364.605 252.219 363.568 245.986 362.932C200.665 358.313 144.91 287.408 90.6213 165.352C81.705 145.309 73.9445 128.71 73.3744 128.465C72.8042 128.22 69.4532 131.614 65.9261 136.009ZM38.6899 179.455L34.1155 189.164L49.6797 217.139C108.316 322.518 159.063 376.918 202.343 380.788C217.025 382.1 220.145 380.291 206.527 378.359C160.185 371.786 102.723 298.371 51.41 180.179C48.6235 173.763 45.6515 168.792 44.805 169.13C43.9569 169.469 41.2054 174.115 38.6899 179.455ZM17.5058 228.207C13.5121 240.128 13.0668 238.931 33.7423 271.882C74.5299 336.887 104.884 370.846 138.017 388.542C148.415 394.094 171.195 398.596 176.685 396.183C177.976 395.617 174.648 394.712 169.291 394.172C129.291 390.142 80.29 334.139 32.1155 237.393C26.8673 226.852 22.2221 218.117 21.7942 217.98C21.3646 217.843 19.4349 222.445 17.5058 228.207ZM3.1812 288.591C1.82289 300.074 2.50941 301.499 22.9776 329.644C61.8866 383.148 98.6653 411.87 128.883 412.35C139.659 412.523 141.828 410.83 132.137 409.81C97.6918 406.186 56.9212 366.785 19.4498 300.905C12.9884 289.546 6.9567 279.841 6.04405 279.338C5.13035 278.837 3.84259 283 3.1812 288.591ZM390.462 142.645C391.44 143.37 392.587 143.825 393.012 143.655C393.437 143.485 393.469 142.56 393.085 141.598C392.701 140.636 391.552 140.182 390.535 140.589C389.517 140.995 389.483 141.921 390.462 142.645ZM0.880444 358.229C1.52102 367.304 2.04471 368.524 8.61548 376.247C12.4927 380.804 22.9931 391.103 31.9505 399.136C50.443 415.721 72.4136 426.925 87.8338 427.638C99.9005 428.193 104.545 426.226 93.2894 425.326C68.014 423.304 38.7376 400.129 5.9198 356.164L0.195541 348.494L0.880444 358.229ZM12.3738 427.163C14.4789 432.435 19.9809 435.547 21.5443 432.348C22.0471 431.322 22.3039 431.584 22.1156 432.931C21.3958 438.06 52.6656 445.914 60.5185 442.578C62.3474 441.801 60.8019 441.175 56.7557 441.055C45.9438 440.733 33.4643 436.279 22.0474 428.672C16.2647 424.817 11.2686 421.769 10.9485 421.896C10.6268 422.025 11.2686 424.394 12.3738 427.163ZM203.817 388.675C203.938 388.977 208.086 389.373 213.033 389.555C265.562 391.479 331.72 474.186 401.867 625.624C412.093 647.698 417.752 658.221 419.58 658.565C421.06 658.844 426.012 657.591 430.588 655.782C440.523 651.852 441.621 655.988 419.564 614.24C369.692 519.854 327.77 459.869 284.593 421.12C263.127 401.854 244.53 391.392 226.584 388.482C215.143 386.629 203.04 386.73 203.817 388.675ZM95.7885 435.496C110.929 436.081 131.578 445.921 150.394 461.519C185.524 490.64 235.322 565.237 272.93 645.079C277.865 655.558 282.687 664.689 283.643 665.374C286.121 667.146 307.554 668.826 306.904 667.198C304.799 661.926 280.253 618.026 267.737 597.149C213.663 506.949 165.69 454.023 124.026 438.599C111.639 434.016 97.4125 432.037 92.2213 434.179C90.7856 434.772 92.3905 435.364 95.7885 435.496ZM132.784 419.99C149.387 420.018 171.91 430.788 191.483 448.058C229.429 481.537 272.148 546.758 315.618 637.58L330.991 669.698L339.981 669.925C351.081 670.203 354.269 669.032 352.751 665.23C349.343 656.692 316.862 598.244 301.739 573.437C261.032 506.659 216.772 454.028 184.275 433.757C165.809 422.239 139.705 414.98 130.712 418.861C129.285 419.477 130.217 419.984 132.784 419.99ZM174.931 404.866C223.5 407.126 286.746 482.626 350.719 614.708C357.283 628.257 365.187 645.669 368.284 653.402L373.917 667.459L382.654 666.42C397.255 664.68 399.014 663.402 395.299 657.229C393.538 654.307 387.479 642.813 381.83 631.687C342.886 554.967 290.998 478.811 252.707 442.172C241.099 431.064 220.549 416.031 210.387 411.209C196.79 404.76 175.837 400.63 169.666 403.181C167.943 403.893 170.312 404.652 174.931 404.866ZM254.521 374.504C270.437 375.818 290.168 386.247 308.832 403.206C352.388 442.786 396.802 513.556 446.006 621.779L457.515 647.09L465.599 643.832C478.128 638.781 478.329 637.811 470.202 621.486C441.617 564.073 405.738 504.34 375.54 463.885C340.532 416.989 303.746 384.022 277.219 375.773C265.933 372.263 251.108 370.622 246.673 372.392C245.004 373.058 248.535 374.009 254.521 374.504ZM292.105 358.43C347.193 364.748 414.861 451.181 482.811 602.016C496.052 631.408 494.161 629.972 508.337 621.404L514.653 617.59L507.836 603.886C454.479 496.644 392.825 409.917 346.182 376.485C326.394 362.304 302.869 354.016 289.284 356.443C284.119 357.363 284.373 357.544 292.105 358.43ZM330.016 342.9C383.39 348.393 446.877 426.735 513.294 569.064C522.505 588.804 530.312 605.117 530.64 605.315C531.557 605.869 546.513 594.967 547.483 593.035C548.962 590.088 514.444 526.292 491.189 488.999C435.263 399.312 385.739 350.066 343.313 341.956C337.88 340.918 330.879 340.522 327.755 341.075C322.411 342.023 322.546 342.131 330.016 342.9ZM367.193 328.132C408.626 330.418 458.046 381.354 511.964 477.341C526.328 502.912 550.328 550.835 556.602 566.473C559.724 574.253 562.405 578.856 563.549 578.399C564.572 577.991 568.659 574.403 572.629 570.427C579.11 563.939 579.568 562.77 577.116 559.005C575.615 556.699 570.227 546.891 565.143 537.212C512.771 437.515 453.1 361.875 406.541 336.16C393.52 328.968 369.157 323.453 362.504 326.193C360.027 327.212 361.494 327.818 367.193 328.132ZM408.415 313.064C456.314 317.022 517.658 390.145 579.681 517.215C587.196 532.615 593.712 545.412 594.16 545.657C594.608 545.9 597.899 542.005 601.473 537.002C607.076 529.163 607.61 527.301 605.344 523.539C603.896 521.136 596.185 507.636 588.206 493.536C531.186 392.765 472.649 326.683 428.869 313.665C417.009 310.137 405.278 309.071 400.285 311.064C398.771 311.669 402.428 312.569 408.415 313.064ZM446.202 297.499C480.672 299.447 523.14 338.764 568.166 410.413C582.805 433.707 612.182 487.257 617.159 499.718C618.793 503.804 620.717 506.913 621.438 506.621C622.159 506.331 624.965 501.788 627.674 496.528L632.602 486.963L619.525 464.812C565.334 373.021 513.549 314.96 472.353 299.808C459.819 295.197 444.824 293.27 439.206 295.546C437.349 296.297 440.498 297.177 446.202 297.499ZM485.794 281.806C528.819 286.81 581.246 343.597 635.605 444.072L645.02 461.472L648.63 451.037C650.614 445.298 651.783 439.414 651.23 437.962C650.674 436.511 642.174 423.025 632.339 407.994C592.347 346.882 553.017 304.945 520.442 288.685C506.986 281.969 490.336 278.089 481.653 279.646C476.932 280.492 477.631 280.856 485.794 281.806ZM522.962 265.929C527.594 266.144 537.035 268.747 543.945 271.714C576.024 285.488 611.249 323.322 648.613 384.131L662.051 406.004L663.672 395.353C665.56 382.955 665.466 382.721 650.429 362.196C623.114 324.911 591.927 292.789 569.709 279.056C551.049 267.522 526.57 260.736 517.167 264.49C515.724 265.066 518.332 265.713 522.962 265.929ZM564.068 250.925C578.342 252.106 595.937 261.064 613.533 276.113C628.478 288.895 649.515 312.175 660.044 327.583C663.515 332.66 667.043 336.936 667.884 337.083C668.728 337.231 669.357 333.393 669.283 328.552L669.151 319.75L651.404 300.756C631.148 279.078 610.528 262.976 593.511 255.549C580.828 250.012 562.065 246.524 556.585 248.682C554.692 249.427 558.025 250.426 564.068 250.925ZM602.049 235.525C615.981 236.675 630.086 243.211 647.48 256.575C660.669 266.708 661.836 267.228 661.226 262.703C660.435 256.828 657.169 253.836 641.759 244.861C626.488 235.966 602.788 230.217 594.7 233.446C593.021 234.117 596.328 235.051 602.049 235.525Z" fill="#FDB705"/>
</svg>
