<svg width="1680" height="901" viewBox="0 0 1680 901" fill="none" xmlns="http://www.w3.org/2000/svg">
<path fill-rule="evenodd" clip-rule="evenodd" d="M95.4954 2.56446C5.76724 7.98091 0.365655 8.68245 0.365655 14.9372C0.365655 20.3596 1.7926 20.6034 21.9185 18.6087C60.3658 14.7976 295.889 15.6983 339.265 19.8186C406.95 26.2517 488.904 35.1969 534.834 41.1633C776.598 72.571 810.077 76.3435 904.098 82.7766C1002.27 89.4952 1155.77 81.635 1308.4 62.074C1399.51 50.3998 1538.05 41.196 1622.77 41.196L1677.03 41.193V33.3983V25.6037L1585.61 27.1941C1487.13 28.9094 1459.6 31.2104 1293.54 51.6038C1149.35 69.3128 1136.14 70.5822 1061.66 73.8939C945.982 79.0339 839.348 70.062 618.709 36.6328C531.499 23.4187 423.042 9.63082 362.394 4.05086C311.77 -0.607522 161.887 -1.44288 95.4954 2.56446ZM0.365655 57.0797V64.9755L33.8097 64.9934C69.2158 65.0142 193.375 70.1214 394.262 79.8216C850.549 101.859 971.123 104.118 1190.97 94.7422C1334.08 88.642 1526.88 82.7588 1600.48 82.2475C1669.74 81.7688 1677.03 81.2456 1677.03 76.7596C1677.03 69.2176 1640.12 67.7015 1537.6 71.034C1449.08 73.9117 1424.82 75.1544 1250.43 85.7495C962.835 103.218 917.217 102.138 434.395 66.4172C305.346 56.8686 219.366 52.7543 112.589 51.0122L0.365655 49.1839V57.0797ZM0.365655 109.386C0.365655 119.913 -3.93897 119.134 95.4954 126.611C179.985 132.964 436.357 133.846 522.093 128.082C751.748 112.635 778.164 111.527 918.962 111.417C996.627 111.354 1092.95 112.968 1133 115.002C1349.83 126.004 1402.28 127.901 1533.25 129.482L1676.36 131.21L1678.48 115.739C1679.65 107.231 1679.8 99.463 1678.82 98.4761C1677.83 97.4921 1677.03 100.438 1677.03 105.025V113.367L1497.92 111.458C1016.02 106.327 824.231 105.843 708.764 109.475C418.5 118.602 270.644 117.957 107.387 106.847C-9.00759 98.9249 0.365655 98.7019 0.365655 109.386ZM1.05535 109.568C1.05535 115.29 1.66774 117.63 2.41392 114.77C3.16306 111.91 3.16306 107.225 2.41392 104.365C1.66774 101.505 1.05535 103.845 1.05535 109.568ZM771.808 124.595C689.429 131.453 637.2 137.325 511.688 153.842C402.232 168.242 318.262 176.17 239.676 179.518C198.586 181.269 62.8005 177.422 18.7614 173.257L0 171.485L0.924542 184.375L1.85206 197.265L37.5257 199.091C109.488 202.777 230.184 201.814 279.997 197.155C339.361 191.605 417.789 180.989 501.283 167.201C580.788 154.073 673.147 140.96 730.189 134.703C783.2 128.885 886.805 128.139 947.204 133.136C989.438 136.629 1124.95 153.312 1238.54 169C1419.46 193.986 1574.47 201.742 1654.52 189.807C1670.62 187.404 1675.64 187.559 1677.51 190.514C1678.94 192.77 1679.93 189.147 1679.96 181.509L1680 168.729L1661.42 171.105C1651.2 172.413 1598.69 173.408 1544.74 173.313C1430.94 173.12 1387.58 169.806 1156.79 143.657C1106.92 138.005 1042.71 131.287 1014.09 128.727C951.449 123.118 817.069 120.826 771.808 124.595ZM750.999 157.522C681.631 162.412 626.703 171.658 470.069 204.804C333.495 233.703 334.036 233.599 279.783 241.59C204 252.753 154.327 255.939 73.9396 254.795L0.362682 253.749V266.383L0.365655 279.017H68.5796C199.05 279.017 281.215 267.477 468.582 222.831C536 206.769 629.447 188.457 675.192 182.345C695.63 179.616 742.452 176.673 779.24 175.805C880.64 173.411 941.154 179.672 1090.79 208.024C1244.24 237.098 1262.72 240.469 1308.4 247.729C1449.16 270.096 1563.3 274.198 1645.46 259.846C1678.92 254.001 1676.45 253.618 1677.97 264.897C1678.68 270.212 1678.73 265.271 1678.07 253.924C1677.42 242.574 1676.44 232.841 1675.89 232.297C1675.34 231.753 1661.67 233.632 1645.49 236.474C1604.53 243.668 1472.06 243.608 1405.02 236.364C1354.34 230.888 1237.04 212.875 1158.43 198.496C1031.77 175.329 929.762 161.161 860.252 157.091C807.369 153.99 800.68 154.017 750.999 157.522ZM1.17426 183.888C1.17426 191.245 1.75395 194.257 2.46445 190.576C3.17198 186.896 3.17198 180.879 2.46445 177.199C1.75395 173.519 1.17426 176.53 1.17426 183.888ZM667.76 233.367C662.855 233.932 640.113 236.542 617.223 239.17C569.423 244.661 520.134 253.933 415.012 277.213C263.694 310.725 211.69 317.601 93.2658 319.751L0.365655 321.436V328.345V335.254L81.3746 333.771C224.176 331.157 267.416 326.142 434.395 292.823C640.223 251.751 711.897 249.518 921.935 277.635C1133.83 305.999 1321.49 322.688 1461.5 325.622C1536.68 327.195 1643.65 323.595 1668.33 318.66C1675.26 317.274 1676.78 318.131 1677.87 324.026C1678.59 327.884 1678.57 325.022 1677.82 317.664C1677.08 310.306 1676 303.805 1675.43 303.213C1674.85 302.621 1657.92 303.915 1637.8 306.082C1616.22 308.41 1569.54 309.929 1523.93 309.789C1405.19 309.42 1323.01 301.203 1052.17 262.616C966.025 250.342 873.05 238.317 845.564 235.891C801.733 232.023 692.895 230.48 667.76 233.367ZM1.21588 265.64C1.23966 273.815 1.81638 276.806 2.50013 272.287C3.1809 267.768 3.16306 261.079 2.45851 257.423C1.75395 253.766 1.19507 257.465 1.21588 265.64ZM560.739 319.415C555.834 320.087 539.112 322.04 523.579 323.761C508.046 325.479 475.271 330.132 450.746 334.098C329.871 353.638 231.501 362.06 122.251 362.214C96.9075 362.25 59.1142 363.151 38.2689 364.212L0.365655 366.147V375.039V383.931L41.2417 381.796C63.725 380.622 128.939 378.475 186.166 377.025C300.452 374.126 311.8 373.175 432.909 356.358C617.407 330.741 678.902 331.93 823.942 363.924C883.785 377.126 939.35 385.839 1006.66 392.576C1058.48 397.76 1319.76 397.745 1394.61 392.555C1508.65 384.641 1649.29 374.195 1662.67 372.643C1674.24 371.302 1676.83 371.915 1678.18 376.305C1679.07 379.207 1679.29 375.782 1678.66 368.698C1678.04 361.614 1676.91 355.204 1676.17 354.455C1675.41 353.706 1649.55 355.136 1618.69 357.633C1512.83 366.198 1458.31 368.564 1327.72 370.265C1120.04 372.967 965.787 363.27 838.696 339.523C736.61 320.449 733.905 320.158 649.923 319.156C605.777 318.63 565.644 318.746 560.739 319.415ZM0.945352 328.069C1.00481 332.974 1.67072 334.621 2.42581 331.728C3.1809 328.836 3.13036 324.822 2.31581 322.81C1.50127 320.797 0.885896 323.164 0.945352 328.069ZM1.05535 374.147C1.05535 379.87 1.66774 382.209 2.41392 379.35C3.16306 376.49 3.16306 371.805 2.41392 368.945C1.66774 366.085 1.05535 368.424 1.05535 374.147ZM514.661 390.943C508.938 391.482 487.534 393.304 467.096 394.992C425.283 398.45 364.154 404.862 311.024 411.37C212.297 423.463 168.956 427.619 111.846 430.467C77.5099 432.182 38.3789 434.376 24.8913 435.345C1.02562 437.064 0.365655 437.313 0.365655 444.713V452.317L32.3233 450.584L64.2809 448.851L33.884 455.522C17.1679 459.19 2.45554 463.224 1.18912 464.488C-0.0743201 465.754 2.23258 466.054 6.31721 465.16C51.2482 455.308 134.285 441.05 163.87 438.113C222.532 432.283 361.814 440.53 468.582 456.152C503.941 461.325 652.947 487.839 693.029 496.089C741.578 506.083 876.989 528.115 918.962 532.847C1061.61 548.933 1158.32 546.962 1400.56 523.031C1517.65 511.464 1571.36 507.923 1629.7 507.923H1677.03V497.518V487.114L1622.77 487.137C1570.04 487.164 1498.18 491.299 1391.64 500.441C1178.73 518.712 1062.89 519.024 914.503 501.725C864.147 495.857 736.899 477.729 666.274 466.361C614.544 458.037 474.249 440.554 422.504 435.984C398.6 433.874 338.344 432.209 287.241 432.248C190.851 432.322 190.851 431.876 287.241 422.11C397.586 410.93 444.402 408.911 551.093 410.727C678.715 412.898 772.227 421.495 898.153 442.632C1005.11 460.587 1020.09 461.69 1155.3 461.583C1261.35 461.5 1302.09 460.085 1425.83 452.189C1505.94 447.076 1595.11 442.001 1623.98 440.913C1673.46 439.046 1676.57 439.249 1678.11 444.442C1679.02 447.474 1679.02 443.265 1678.11 435.09C1677.21 426.914 1676.26 420.086 1676 419.916C1675.75 419.747 1648.79 420.719 1616.08 422.075C1558.69 424.453 1506.1 427.776 1354.48 438.595C1305.27 442.105 1245.31 443.729 1161.25 443.818C1019.03 443.975 992.447 441.612 877.343 418.608C761.074 395.367 697.375 388.842 593.44 389.517C555.834 389.763 520.383 390.402 514.661 390.943ZM0.945352 444.008C1.00481 448.913 1.67072 450.56 2.42581 447.668C3.1809 444.775 3.13036 440.762 2.31581 438.749C1.50127 436.737 0.885896 439.103 0.945352 444.008ZM37.5257 463.527C4.46515 467.383 0.365655 468.608 0.365655 474.634C0.365655 479.488 5.43428 479.896 67.9969 480.077C105.196 480.187 151.013 481.891 169.816 483.864C265.305 493.886 375.299 516.378 513.174 554.076C811.739 635.712 889.329 650.767 1011.12 650.701C1095.25 650.654 1156.17 644.396 1315.83 619.392C1462.95 596.349 1475.08 594.607 1522.44 589.69C1547.78 587.059 1592.85 584.104 1622.59 583.123L1676.65 581.34L1678.61 563.054C1679.68 552.997 1679.95 541.495 1679.2 537.494C1678.43 533.385 1677.66 536.364 1677.43 544.34L1677.03 558.461L1630.21 558.476C1559.16 558.5 1496.93 564.573 1352.99 585.534C1168.97 612.331 1075.69 619.933 992.89 614.879C898.967 609.144 826.469 595.52 635.059 547.625C351.9 476.774 276.385 463.685 140.087 461.827C96.7588 461.238 50.606 462.002 37.5257 463.527ZM3.33846 550.384C3.33846 568.863 1.87287 567.846 34.5529 572.029C64.3642 575.843 148.42 595.015 192.007 607.94C243.951 623.348 272.478 632.873 360.075 664.064C589.147 745.629 673.061 768.174 786.672 778.683C862.116 785.66 981.174 770.407 1217.73 723.452C1278.23 711.442 1343.11 698.73 1361.91 695.198C1380.71 691.666 1405.9 686.848 1417.88 684.487C1468.68 674.487 1563.38 662.601 1653.99 654.86L1677.03 652.892V639.865V626.836L1661.42 626.865C1593.37 626.999 1432.37 650.487 1262.76 685.022C1140.82 709.848 1057.74 723.333 968.397 732.795C896.657 740.394 888.663 740.706 849.485 737.439C735.498 727.941 661.247 709.631 431.422 634.336C225.083 566.734 132.537 544.082 29.3505 535.918L3.33846 533.861V550.384ZM0.365655 691.348V717.619L28.4468 724.439C72.5453 735.147 154.012 762.592 259 802.112C385.421 849.698 458.005 874.202 515.172 888.6L561.759 900.333H831.214H1100.67L1169.61 891.341C1207.52 886.397 1265.56 878.406 1298.6 873.584C1419.23 855.973 1563.58 840.033 1637.98 836.103L1677.03 834.043V804.3V774.557L1639.12 776.418C1563.04 780.152 1449.31 794.231 1250.43 824.539C1048.18 855.361 961.494 865.816 841.669 873.843C701.778 883.216 579.459 865.9 432.909 815.977C386.756 800.257 363.8 791.642 257.513 750.165C158.992 711.718 86.5978 686.96 36.0393 674.427C22.1414 670.982 8.4279 667.471 5.56806 666.621C0.888869 665.235 0.365655 667.726 0.365655 691.348ZM0.365655 878.382V900.333L81.3746 900.146C133.72 900.024 159.979 898.99 155.582 897.227C145.977 893.371 67.1408 872.11 30.8369 863.587L0.365655 856.431V878.382Z" fill="#2571BC"/>
</svg>
