<svg width="362" height="64" viewBox="0 0 362 64" fill="none" xmlns="http://www.w3.org/2000/svg">
<path fill-rule="evenodd" clip-rule="evenodd" d="M14.8774 19.3739C12.1406 20.7377 12.5154 24.6338 15.4731 25.5661C16.1503 25.7797 16.3738 25.7903 17.0397 25.6413C19.6887 25.0485 20.627 21.9125 18.7244 20.01C17.6604 18.9459 16.2155 18.707 14.8774 19.3739ZM33.8209 19.2857C28.0806 20.4982 23.6324 25.5273 23.2251 31.2656L23.1348 32.5369L26.5005 32.4955L29.866 32.4539L29.9674 31.5353C30.2033 29.3959 31.6781 27.4052 33.7742 26.3971C34.7311 25.9367 35.0471 25.8588 36.2015 25.7985C37.2781 25.7421 37.715 25.7857 38.5151 26.0295C41.1431 26.8298 42.9625 28.9952 43.2948 31.7186L43.3845 32.4539H46.6923H50L49.9701 31.3034C49.9128 29.0976 48.8938 26.4143 47.3202 24.326C44.2155 20.2057 38.8862 18.2159 33.8209 19.2857ZM13.038 32.5287C12.8782 32.7872 13.2497 35.2251 13.6351 36.4478C14.5796 39.4445 16.4533 41.9322 19.0725 43.6671C20.3661 44.524 21.4684 45.0217 23.1332 45.5005C24.7354 45.9611 28.1716 45.9577 29.866 45.4936C32.2998 44.8271 34.4695 43.5305 36.1944 41.7117C37.8217 39.996 38.758 38.3883 39.4087 36.1931C39.7174 35.1513 40.0545 32.7224 39.9203 32.5054C39.8785 32.4375 38.3683 32.382 36.5646 32.382H33.285L33.1116 33.4576C32.5763 36.7756 29.8259 39.1413 26.5038 39.1413C23.1168 39.1413 20.3524 36.7573 19.8202 33.3772L19.6634 32.382H16.3961C14.3301 32.382 13.0953 32.436 13.038 32.5287Z" fill="black"/>
<path d="M84.56 44V20.96H87.408V41.296H98.096V44H84.56ZM107.363 44.448C106.253 44.448 105.299 44.272 104.499 43.92C103.709 43.568 103.053 43.0987 102.531 42.512C102.008 41.9253 101.597 41.2747 101.299 40.56C101 39.8453 100.787 39.1147 100.659 38.368C100.541 37.6213 100.483 36.9227 100.483 36.272V26.72H103.363V35.376C103.363 36.1867 103.437 36.9707 103.587 37.728C103.736 38.4853 103.987 39.168 104.339 39.776C104.701 40.384 105.181 40.864 105.779 41.216C106.387 41.568 107.144 41.744 108.051 41.744C108.765 41.744 109.416 41.6213 110.003 41.376C110.589 41.1307 111.091 40.768 111.507 40.288C111.923 39.7973 112.243 39.1787 112.467 38.432C112.691 37.6853 112.803 36.816 112.803 35.824L114.675 36.4C114.675 38.064 114.371 39.4987 113.763 40.704C113.165 41.9093 112.317 42.8373 111.219 43.488C110.131 44.128 108.845 44.448 107.363 44.448ZM113.123 44V39.376H112.803V26.72H115.667V44H113.123ZM127.426 44.48C125.677 44.48 124.189 44.0907 122.962 43.312C121.746 42.5227 120.818 41.44 120.178 40.064C119.538 38.688 119.208 37.12 119.186 35.36C119.208 33.5573 119.544 31.9733 120.194 30.608C120.856 29.232 121.8 28.16 123.026 27.392C124.253 26.624 125.73 26.24 127.458 26.24C129.282 26.24 130.85 26.688 132.162 27.584C133.485 28.48 134.37 29.7067 134.818 31.264L132.002 32.112C131.64 31.1093 131.048 30.3307 130.226 29.776C129.416 29.2213 128.482 28.944 127.426 28.944C126.242 28.944 125.266 29.2213 124.498 29.776C123.73 30.32 123.16 31.0773 122.786 32.048C122.413 33.008 122.221 34.112 122.21 35.36C122.232 37.28 122.674 38.832 123.538 40.016C124.413 41.1893 125.709 41.776 127.426 41.776C128.557 41.776 129.496 41.52 130.242 41.008C130.989 40.4853 131.554 39.7333 131.938 38.752L134.818 39.504C134.221 41.1147 133.288 42.3467 132.018 43.2C130.749 44.0533 129.218 44.48 127.426 44.48ZM137.935 23.664V20.72H140.783V23.664H137.935ZM137.935 44V26.72H140.783V44H137.935ZM152.368 44.48C150.757 44.48 149.376 44.08 148.224 43.28C147.072 42.4693 146.181 41.376 145.552 40C144.933 38.624 144.624 37.072 144.624 35.344C144.624 33.616 144.933 32.064 145.552 30.688C146.181 29.312 147.072 28.2293 148.224 27.44C149.376 26.64 150.752 26.24 152.352 26.24C153.984 26.24 155.354 26.6347 156.464 27.424C157.573 28.2133 158.41 29.296 158.976 30.672C159.552 32.048 159.84 33.6053 159.84 35.344C159.84 37.0613 159.552 38.6133 158.976 40C158.41 41.376 157.573 42.4693 156.464 43.28C155.354 44.08 153.989 44.48 152.368 44.48ZM152.72 41.872C153.882 41.872 154.837 41.5947 155.584 41.04C156.33 40.4747 156.88 39.7013 157.232 38.72C157.594 37.728 157.776 36.6027 157.776 35.344C157.776 34.064 157.594 32.9387 157.232 31.968C156.88 30.9867 156.336 30.224 155.6 29.68C154.864 29.1253 153.93 28.848 152.8 28.848C151.626 28.848 150.656 29.136 149.888 29.712C149.13 30.288 148.565 31.0667 148.192 32.048C147.829 33.0293 147.648 34.128 147.648 35.344C147.648 36.5707 147.834 37.68 148.208 38.672C148.581 39.6533 149.141 40.432 149.888 41.008C150.645 41.584 151.589 41.872 152.72 41.872ZM157.776 44V31.28H157.456V20.96H160.32V44H157.776ZM164.803 44V20.96H167.395L176.099 39.312L184.755 20.96H187.379V43.984H184.675V27.216L176.851 44H175.331L167.507 27.216V44H164.803ZM194.265 51.68L197.609 42.592L197.657 45.28L190.105 26.72H193.097L199.017 41.648H197.993L203.545 26.72H206.441L197.033 51.68H194.265ZM209.084 44V26.72H211.628V30.896L211.212 30.352C211.414 29.8187 211.676 29.328 211.996 28.88C212.326 28.432 212.694 28.064 213.1 27.776C213.548 27.4133 214.054 27.136 214.62 26.944C215.185 26.752 215.761 26.64 216.348 26.608C216.934 26.5653 217.484 26.6027 217.996 26.72V29.392C217.398 29.232 216.742 29.1893 216.028 29.264C215.313 29.3387 214.652 29.6 214.044 30.048C213.489 30.4427 213.057 30.9227 212.748 31.488C212.449 32.0533 212.241 32.6667 212.124 33.328C212.006 33.9787 211.948 34.6453 211.948 35.328V44H209.084ZM221.341 23.664V20.72H224.189V23.664H221.341ZM221.341 44V26.72H224.189V44H221.341ZM233.902 44.48C232.611 44.48 231.529 44.2453 230.654 43.776C229.79 43.296 229.134 42.6667 228.686 41.888C228.249 41.1093 228.03 40.256 228.03 39.328C228.03 38.4213 228.201 37.6373 228.542 36.976C228.894 36.304 229.385 35.7493 230.014 35.312C230.643 34.864 231.395 34.512 232.27 34.256C233.091 34.032 234.009 33.84 235.022 33.68C236.046 33.5093 237.081 33.3547 238.126 33.216C239.171 33.0773 240.147 32.944 241.054 32.816L240.03 33.408C240.062 31.872 239.753 30.736 239.102 30C238.462 29.264 237.353 28.896 235.774 28.896C234.729 28.896 233.811 29.136 233.022 29.616C232.243 30.0853 231.694 30.8533 231.374 31.92L228.67 31.104C229.086 29.5893 229.891 28.4 231.086 27.536C232.281 26.672 233.854 26.24 235.806 26.24C237.374 26.24 238.718 26.5227 239.838 27.088C240.969 27.6427 241.779 28.4853 242.27 29.616C242.515 30.1493 242.67 30.7307 242.734 31.36C242.798 31.9787 242.83 32.6293 242.83 33.312V44H240.302V39.856L240.894 40.24C240.243 41.6373 239.331 42.6933 238.158 43.408C236.995 44.1227 235.577 44.48 233.902 44.48ZM234.334 42.096C235.358 42.096 236.243 41.9147 236.99 41.552C237.747 41.1787 238.355 40.6933 238.814 40.096C239.273 39.488 239.571 38.8267 239.71 38.112C239.87 37.5787 239.955 36.9867 239.966 36.336C239.987 35.6747 239.998 35.168 239.998 34.816L240.99 35.248C240.062 35.376 239.15 35.4987 238.254 35.616C237.358 35.7333 236.51 35.8613 235.71 36C234.91 36.128 234.19 36.2827 233.55 36.464C233.081 36.6133 232.638 36.8053 232.222 37.04C231.817 37.2747 231.486 37.5787 231.23 37.952C230.985 38.3147 230.862 38.768 230.862 39.312C230.862 39.7813 230.979 40.2293 231.214 40.656C231.459 41.0827 231.833 41.4293 232.334 41.696C232.846 41.9627 233.513 42.096 234.334 42.096ZM253.774 44.48C252.163 44.48 250.782 44.08 249.63 43.28C248.478 42.4693 247.587 41.376 246.958 40C246.339 38.624 246.03 37.072 246.03 35.344C246.03 33.616 246.339 32.064 246.958 30.688C247.587 29.312 248.478 28.2293 249.63 27.44C250.782 26.64 252.158 26.24 253.758 26.24C255.39 26.24 256.761 26.6347 257.87 27.424C258.979 28.2133 259.817 29.296 260.382 30.672C260.958 32.048 261.246 33.6053 261.246 35.344C261.246 37.0613 260.958 38.6133 260.382 40C259.817 41.376 258.979 42.4693 257.87 43.28C256.761 44.08 255.395 44.48 253.774 44.48ZM254.126 41.872C255.289 41.872 256.243 41.5947 256.99 41.04C257.737 40.4747 258.286 39.7013 258.638 38.72C259.001 37.728 259.182 36.6027 259.182 35.344C259.182 34.064 259.001 32.9387 258.638 31.968C258.286 30.9867 257.742 30.224 257.006 29.68C256.27 29.1253 255.337 28.848 254.206 28.848C253.033 28.848 252.062 29.136 251.294 29.712C250.537 30.288 249.971 31.0667 249.598 32.048C249.235 33.0293 249.054 34.128 249.054 35.344C249.054 36.5707 249.241 37.68 249.614 38.672C249.987 39.6533 250.547 40.432 251.294 41.008C252.051 41.584 252.995 41.872 254.126 41.872ZM259.182 44V31.28H258.862V20.96H261.726V44H259.182ZM275.537 44.48C273.958 44.48 272.518 44.2027 271.217 43.648C269.915 43.0933 268.795 42.2987 267.857 41.264C266.918 40.2187 266.193 38.96 265.681 37.488C265.179 36.0053 264.929 34.336 264.929 32.48C264.929 30.0267 265.366 27.904 266.241 26.112C267.115 24.32 268.347 22.9387 269.937 21.968C271.526 20.9867 273.393 20.496 275.537 20.496C278.118 20.496 280.198 21.0987 281.777 22.304C283.355 23.4987 284.443 25.136 285.041 27.216L282.161 27.808C281.681 26.4107 280.891 25.296 279.793 24.464C278.694 23.632 277.323 23.216 275.681 23.216C273.963 23.2053 272.534 23.5893 271.393 24.368C270.262 25.136 269.409 26.2187 268.833 27.616C268.257 29.0133 267.963 30.6347 267.953 32.48C267.942 34.3147 268.225 35.9253 268.801 37.312C269.377 38.6987 270.235 39.7867 271.377 40.576C272.529 41.3547 273.963 41.7493 275.681 41.76C277.163 41.7707 278.411 41.488 279.425 40.912C280.438 40.336 281.222 39.504 281.777 38.416C282.331 37.328 282.667 36.0213 282.785 34.496H277.889V32.144H285.793C285.825 32.3573 285.841 32.6133 285.841 32.912C285.851 33.2 285.857 33.3973 285.857 33.504C285.857 35.6053 285.462 37.488 284.673 39.152C283.894 40.8053 282.737 42.1067 281.201 43.056C279.675 44.0053 277.787 44.48 275.537 44.48ZM289.373 23.664V20.72H292.221V23.664H289.373ZM289.373 44V26.72H292.221V44H289.373ZM298.669 44V25.776C298.669 25.328 298.691 24.8747 298.733 24.416C298.776 23.9467 298.872 23.4933 299.021 23.056C299.171 22.608 299.416 22.1973 299.757 21.824C300.152 21.3867 300.584 21.0773 301.053 20.896C301.523 20.704 301.997 20.5867 302.477 20.544C302.968 20.5013 303.432 20.48 303.869 20.48H306.061V22.848H304.029C303.187 22.848 302.557 23.056 302.141 23.472C301.725 23.8773 301.517 24.496 301.517 25.328V44H298.669ZM295.741 29.072V26.72H306.061V29.072H295.741ZM318.263 44C317.239 44.2027 316.226 44.2827 315.223 44.24C314.231 44.208 313.346 44.0107 312.567 43.648C311.788 43.2747 311.196 42.6987 310.791 41.92C310.45 41.2373 310.263 40.5493 310.231 39.856C310.21 39.152 310.199 38.3573 310.199 37.472V21.92H313.047V37.344C313.047 38.048 313.052 38.6507 313.063 39.152C313.084 39.6533 313.196 40.0853 313.399 40.448C313.783 41.1307 314.391 41.5307 315.223 41.648C316.066 41.7653 317.079 41.7333 318.263 41.552V44ZM306.695 29.072V26.72H318.263V29.072H306.695ZM328.299 44.464C326.241 44.464 324.55 44.016 323.227 43.12C321.915 42.2133 321.11 40.9493 320.811 39.328L323.723 38.864C323.958 39.8027 324.497 40.5493 325.339 41.104C326.182 41.648 327.227 41.92 328.475 41.92C329.659 41.92 330.587 41.6747 331.259 41.184C331.931 40.6933 332.267 40.0267 332.267 39.184C332.267 38.6933 332.155 38.2987 331.931 38C331.707 37.6907 331.243 37.4027 330.539 37.136C329.846 36.8693 328.795 36.5493 327.387 36.176C325.862 35.7707 324.662 35.3493 323.787 34.912C322.913 34.4747 322.289 33.968 321.915 33.392C321.542 32.816 321.355 32.1173 321.355 31.296C321.355 30.2827 321.633 29.3973 322.187 28.64C322.742 27.872 323.515 27.28 324.507 26.864C325.51 26.448 326.673 26.24 327.995 26.24C329.307 26.24 330.481 26.448 331.515 26.864C332.55 27.28 333.382 27.872 334.011 28.64C334.651 29.3973 335.03 30.2827 335.147 31.296L332.235 31.824C332.097 30.896 331.649 30.1653 330.891 29.632C330.145 29.0987 329.179 28.816 327.995 28.784C326.875 28.7413 325.963 28.9387 325.259 29.376C324.566 29.8133 324.219 30.4053 324.219 31.152C324.219 31.568 324.347 31.9253 324.603 32.224C324.87 32.5227 325.355 32.8053 326.059 33.072C326.774 33.3387 327.809 33.6427 329.163 33.984C330.689 34.368 331.889 34.7893 332.763 35.248C333.649 35.696 334.278 36.2293 334.651 36.848C335.025 37.456 335.211 38.208 335.211 39.104C335.211 40.768 334.598 42.08 333.371 43.04C332.145 43.9893 330.454 44.464 328.299 44.464Z" fill="black"/>
</svg>
